<mxfile host="65bd71144e">
    <diagram id="V1nOHUrc-dWnLDh1tLI6" name="Strategy Tests">
        <mxGraphModel dx="1509" dy="627" grid="1" gridSize="10" guides="1" tooltips="1" connect="1" arrows="1" fold="1" page="0" pageScale="1" pageWidth="850" pageHeight="1100" math="0" shadow="0">
            <root>
                <mxCell id="0"/>
                <mxCell id="1" parent="0"/>
                <mxCell id="10" style="edgeStyle=none;html=1;endArrow=open;endFill=0;endSize=12;labelPosition=center;verticalLabelPosition=middle;align=center;verticalAlign=middle;" edge="1" parent="1" source="2" target="5">
                    <mxGeometry relative="1" as="geometry"/>
                </mxCell>
                <mxCell id="2" value="InjectAbstractionLocationsController" style="rounded=0;whiteSpace=wrap;html=1;" vertex="1" parent="1">
                    <mxGeometry x="60" y="240" width="220" height="40" as="geometry"/>
                </mxCell>
                <mxCell id="7" style="edgeStyle=none;html=1;endArrow=block;endFill=0;endSize=12;dashed=1;" edge="1" parent="1" source="3" target="5">
                    <mxGeometry relative="1" as="geometry"/>
                </mxCell>
                <mxCell id="11" style="edgeStyle=none;html=1;endArrow=open;endFill=0;endSize=12;" edge="1" parent="1" source="3" target="4">
                    <mxGeometry relative="1" as="geometry"/>
                </mxCell>
                <mxCell id="3" value="SqlLocationService" style="rounded=0;whiteSpace=wrap;html=1;" vertex="1" parent="1">
                    <mxGeometry x="400" y="320" width="220" height="40" as="geometry"/>
                </mxCell>
                <mxCell id="4" value="&amp;lt;&amp;lt;interface&amp;gt;&amp;gt;&lt;br&gt;IDatabase" style="rounded=0;whiteSpace=wrap;html=1;" vertex="1" parent="1">
                    <mxGeometry x="60" y="320" width="220" height="40" as="geometry"/>
                </mxCell>
                <mxCell id="5" value="&amp;lt;&amp;lt;interface&amp;gt;&amp;gt;&lt;br&gt;ILocationService" style="rounded=0;whiteSpace=wrap;html=1;" vertex="1" parent="1">
                    <mxGeometry x="400" y="240" width="220" height="40" as="geometry"/>
                </mxCell>
                <mxCell id="16" value="Mock_the_IDatabase" style="text;html=1;align=center;verticalAlign=middle;resizable=0;points=[];autosize=1;strokeColor=none;fillColor=none;" vertex="1" parent="1">
                    <mxGeometry x="-180" y="450" width="140" height="30" as="geometry"/>
                </mxCell>
                <mxCell id="17" value="600 px MAX width" style="rounded=0;whiteSpace=wrap;html=1;sketch=0;fontSize=12;align=center;fontStyle=1" vertex="1" parent="1">
                    <mxGeometry x="40" y="120" width="600" height="40" as="geometry"/>
                </mxCell>
                <mxCell id="19" style="edgeStyle=none;html=1;dashed=1;endArrow=block;endFill=0;endSize=12;" edge="1" parent="1" source="18" target="4">
                    <mxGeometry relative="1" as="geometry"/>
                </mxCell>
                <mxCell id="18" value="Mock&amp;lt;IDatabase&amp;gt;" style="rounded=0;whiteSpace=wrap;html=1;" vertex="1" parent="1">
                    <mxGeometry x="60" y="400" width="220" height="40" as="geometry"/>
                </mxCell>
                <mxCell id="20" style="edgeStyle=none;html=1;endArrow=open;endFill=0;endSize=12;labelPosition=center;verticalLabelPosition=middle;align=center;verticalAlign=middle;" edge="1" parent="1" source="21" target="22">
                    <mxGeometry relative="1" as="geometry">
                        <mxPoint x="400" y="540" as="targetPoint"/>
                    </mxGeometry>
                </mxCell>
                <mxCell id="24" style="html=1;endArrow=open;endFill=0;endSize=12;rounded=0;exitX=0.25;exitY=1;exitDx=0;exitDy=0;entryX=0.5;entryY=0;entryDx=0;entryDy=0;edgeStyle=elbowEdgeStyle;elbow=vertical;" edge="1" parent="1" source="22" target="23">
                    <mxGeometry relative="1" as="geometry"/>
                </mxCell>
                <mxCell id="21" value="InjectAbstractionLocationsController" style="rounded=0;whiteSpace=wrap;html=1;" vertex="1" parent="1">
                    <mxGeometry x="60" y="520" width="220" height="40" as="geometry"/>
                </mxCell>
                <mxCell id="22" value="SqlLocationService" style="rounded=0;whiteSpace=wrap;html=1;" vertex="1" parent="1">
                    <mxGeometry x="400" y="520" width="220" height="40" as="geometry"/>
                </mxCell>
                <mxCell id="23" value="Mock&amp;lt;IDatabase&amp;gt;" style="rounded=0;whiteSpace=wrap;html=1;" vertex="1" parent="1">
                    <mxGeometry x="60" y="600" width="220" height="40" as="geometry"/>
                </mxCell>
                <mxCell id="26" value="&amp;lt;&amp;lt;interface&amp;gt;&amp;gt;&lt;br&gt;ILocationService" style="rounded=0;whiteSpace=wrap;html=1;" vertex="1" parent="1">
                    <mxGeometry x="400" y="600" width="220" height="40" as="geometry"/>
                </mxCell>
                <mxCell id="27" style="edgeStyle=none;html=1;dashed=1;endArrow=block;endFill=0;endSize=12;" edge="1" parent="1" source="22" target="26">
                    <mxGeometry relative="1" as="geometry">
                        <mxPoint x="180" y="410" as="sourcePoint"/>
                        <mxPoint x="170" y="680" as="targetPoint"/>
                    </mxGeometry>
                </mxCell>
                <mxCell id="28" style="edgeStyle=none;html=1;dashed=1;endArrow=block;endFill=0;endSize=12;" edge="1" parent="1" source="23" target="36">
                    <mxGeometry relative="1" as="geometry">
                        <mxPoint x="180" y="650" as="sourcePoint"/>
                        <mxPoint x="180" y="690" as="targetPoint"/>
                    </mxGeometry>
                </mxCell>
                <mxCell id="29" value="" style="shape=cross;whiteSpace=wrap;html=1;rotation=45;fillColor=#a20025;fontColor=#ffffff;strokeColor=#6F0000;" vertex="1" parent="1">
                    <mxGeometry x="188.32999999999998" y="160" width="303.33" height="280" as="geometry"/>
                </mxCell>
                <mxCell id="31" value="InjectAbstractionLocationsController" style="rounded=0;whiteSpace=wrap;html=1;" vertex="1" parent="1">
                    <mxGeometry x="59.99" y="840" width="220" height="40" as="geometry"/>
                </mxCell>
                <mxCell id="32" style="edgeStyle=none;html=1;endArrow=open;endFill=0;endSize=12;labelPosition=center;verticalLabelPosition=middle;align=center;verticalAlign=middle;" edge="1" parent="1" target="33" source="31">
                    <mxGeometry relative="1" as="geometry">
                        <mxPoint x="399.99" y="740" as="targetPoint"/>
                        <mxPoint x="169.99" y="760" as="sourcePoint"/>
                    </mxGeometry>
                </mxCell>
                <mxCell id="33" value="InMemoryLocationService" style="rounded=0;whiteSpace=wrap;html=1;" vertex="1" parent="1">
                    <mxGeometry x="399.99" y="840" width="220" height="40" as="geometry"/>
                </mxCell>
                <mxCell id="35" style="edgeStyle=none;html=1;dashed=1;endArrow=block;endFill=0;endSize=12;" edge="1" parent="1" source="33" target="37">
                    <mxGeometry relative="1" as="geometry">
                        <mxPoint x="179.99" y="610" as="sourcePoint"/>
                        <mxPoint x="169.99" y="880" as="targetPoint"/>
                    </mxGeometry>
                </mxCell>
                <mxCell id="36" value="&amp;lt;&amp;lt;interface&amp;gt;&amp;gt;&lt;br&gt;IDatabase" style="rounded=0;whiteSpace=wrap;html=1;" vertex="1" parent="1">
                    <mxGeometry x="60" y="680" width="220" height="40" as="geometry"/>
                </mxCell>
                <mxCell id="37" value="&amp;lt;&amp;lt;interface&amp;gt;&amp;gt;&lt;br&gt;ILocationService" style="rounded=0;whiteSpace=wrap;html=1;" vertex="1" parent="1">
                    <mxGeometry x="399.99" y="920" width="220" height="40" as="geometry"/>
                </mxCell>
                <mxCell id="40" value="Mock&amp;lt;ILocationService&amp;gt;" style="rounded=0;whiteSpace=wrap;html=1;" vertex="1" parent="1">
                    <mxGeometry x="400" y="1160" width="220" height="40" as="geometry"/>
                </mxCell>
                <mxCell id="41" value="Use_the_InMemoryLocationService" style="text;html=1;align=center;verticalAlign=middle;resizable=0;points=[];autosize=1;strokeColor=none;fillColor=none;" vertex="1" parent="1">
                    <mxGeometry x="-210" y="850" width="210" height="30" as="geometry"/>
                </mxCell>
                <mxCell id="42" value="Mock_the_ILocationService" style="text;html=1;align=center;verticalAlign=middle;resizable=0;points=[];autosize=1;strokeColor=none;fillColor=none;" vertex="1" parent="1">
                    <mxGeometry x="-170" y="1170" width="170" height="30" as="geometry"/>
                </mxCell>
                <mxCell id="43" value="InjectAbstractionLocationsController" style="rounded=0;whiteSpace=wrap;html=1;" vertex="1" parent="1">
                    <mxGeometry x="60" y="1160" width="220" height="40" as="geometry"/>
                </mxCell>
                <mxCell id="44" style="edgeStyle=none;html=1;endArrow=open;endFill=0;endSize=12;labelPosition=center;verticalLabelPosition=middle;align=center;verticalAlign=middle;" edge="1" parent="1" source="43" target="40">
                    <mxGeometry relative="1" as="geometry">
                        <mxPoint x="160" y="1240" as="targetPoint"/>
                        <mxPoint x="160" y="1200" as="sourcePoint"/>
                    </mxGeometry>
                </mxCell>
                <mxCell id="45" style="edgeStyle=none;html=1;dashed=1;endArrow=block;endFill=0;endSize=12;" edge="1" parent="1" target="46" source="40">
                    <mxGeometry relative="1" as="geometry">
                        <mxPoint x="170" y="1280" as="sourcePoint"/>
                        <mxPoint x="170" y="1320" as="targetPoint"/>
                    </mxGeometry>
                </mxCell>
                <mxCell id="46" value="&amp;lt;&amp;lt;interface&amp;gt;&amp;gt;&lt;br&gt;ILocationService" style="rounded=0;whiteSpace=wrap;html=1;" vertex="1" parent="1">
                    <mxGeometry x="400" y="1240" width="220" height="40" as="geometry"/>
                </mxCell>
                <mxCell id="47" value="600 px MAX width" style="rounded=0;whiteSpace=wrap;html=1;sketch=0;fontSize=12;align=center;fontStyle=1" vertex="1" parent="1">
                    <mxGeometry x="60" y="1440" width="600" height="40" as="geometry"/>
                </mxCell>
                <mxCell id="48" style="edgeStyle=elbowEdgeStyle;html=1;endArrow=open;endFill=0;endSize=12;labelPosition=center;verticalLabelPosition=middle;align=center;verticalAlign=middle;elbow=vertical;rounded=0;" edge="1" parent="1" source="51" target="50">
                    <mxGeometry relative="1" as="geometry">
                        <mxPoint x="1080" y="540" as="targetPoint"/>
                    </mxGeometry>
                </mxCell>
                <mxCell id="69" value="Injected into" style="edgeLabel;html=1;align=center;verticalAlign=middle;resizable=0;points=[];" vertex="1" connectable="0" parent="48">
                    <mxGeometry x="0.31" y="-1" relative="1" as="geometry">
                        <mxPoint x="-22" y="-1" as="offset"/>
                    </mxGeometry>
                </mxCell>
                <mxCell id="49" style="html=1;endArrow=open;endFill=0;endSize=12;rounded=0;edgeStyle=elbowEdgeStyle;elbow=vertical;" edge="1" parent="1" source="52" target="51">
                    <mxGeometry relative="1" as="geometry">
                        <mxPoint x="1060" y="690" as="sourcePoint"/>
                    </mxGeometry>
                </mxCell>
                <mxCell id="70" value="Injected into" style="edgeLabel;html=1;align=center;verticalAlign=middle;resizable=0;points=[];" vertex="1" connectable="0" parent="49">
                    <mxGeometry x="0.088" y="-1" relative="1" as="geometry">
                        <mxPoint x="-6" y="-1" as="offset"/>
                    </mxGeometry>
                </mxCell>
                <mxCell id="50" value="InjectAbstractionLocationsController" style="rounded=0;whiteSpace=wrap;html=1;" vertex="1" parent="1">
                    <mxGeometry x="1420" y="540" width="220" height="40" as="geometry"/>
                </mxCell>
                <mxCell id="51" value="SqlLocationService" style="rounded=0;whiteSpace=wrap;html=1;" vertex="1" parent="1">
                    <mxGeometry x="1080" y="540" width="220" height="40" as="geometry"/>
                </mxCell>
                <mxCell id="52" value="Mock&amp;lt;IDatabase&amp;gt;" style="rounded=0;whiteSpace=wrap;html=1;" vertex="1" parent="1">
                    <mxGeometry x="740" y="540" width="220" height="40" as="geometry"/>
                </mxCell>
                <mxCell id="57" value="600 px MAX width" style="rounded=0;whiteSpace=wrap;html=1;sketch=0;fontSize=12;align=center;fontStyle=1" vertex="1" parent="1">
                    <mxGeometry x="740" y="320" width="600" height="40" as="geometry"/>
                </mxCell>
                <mxCell id="58" value="600 px MAX width" style="rounded=0;whiteSpace=wrap;html=1;sketch=0;fontSize=12;align=center;fontStyle=1" vertex="1" parent="1">
                    <mxGeometry x="720" y="1440" width="600" height="40" as="geometry"/>
                </mxCell>
                <mxCell id="82" style="rounded=0;html=1;endArrow=open;endFill=0;endSize=12;elbow=vertical;dashed=1;exitX=0;exitY=0;exitDx=0;exitDy=0;entryX=1;entryY=1;entryDx=0;entryDy=0;" edge="1" parent="1" source="59" target="75">
                    <mxGeometry relative="1" as="geometry"/>
                </mxCell>
                <mxCell id="83" value="Depends on" style="edgeLabel;html=1;align=center;verticalAlign=middle;resizable=0;points=[];" vertex="1" connectable="0" parent="82">
                    <mxGeometry x="0.2567" y="2" relative="1" as="geometry">
                        <mxPoint x="16" y="6" as="offset"/>
                    </mxGeometry>
                </mxCell>
                <mxCell id="59" value="InjectAbstractionLocationsController" style="rounded=0;whiteSpace=wrap;html=1;" vertex="1" parent="1">
                    <mxGeometry x="1080" y="860" width="220" height="40" as="geometry"/>
                </mxCell>
                <mxCell id="60" style="edgeStyle=orthogonalEdgeStyle;html=1;endArrow=open;endFill=0;endSize=12;labelPosition=center;verticalLabelPosition=middle;align=center;verticalAlign=middle;rounded=0;" edge="1" parent="1" source="61" target="59">
                    <mxGeometry relative="1" as="geometry">
                        <mxPoint x="1020" y="760" as="targetPoint"/>
                        <mxPoint x="850" y="760" as="sourcePoint"/>
                    </mxGeometry>
                </mxCell>
                <mxCell id="71" value="Injected into" style="edgeLabel;html=1;align=center;verticalAlign=middle;resizable=0;points=[];" vertex="1" connectable="0" parent="60">
                    <mxGeometry x="0.3901" y="3" relative="1" as="geometry">
                        <mxPoint x="-23" y="3" as="offset"/>
                    </mxGeometry>
                </mxCell>
                <mxCell id="61" value="InMemoryLocationService" style="rounded=0;whiteSpace=wrap;html=1;" vertex="1" parent="1">
                    <mxGeometry x="740" y="860" width="220" height="40" as="geometry"/>
                </mxCell>
                <mxCell id="64" value="Mock&amp;lt;ILocationService&amp;gt;" style="rounded=0;whiteSpace=wrap;html=1;" vertex="1" parent="1">
                    <mxGeometry x="740" y="1180" width="220" height="40" as="geometry"/>
                </mxCell>
                <mxCell id="65" value="InjectAbstractionLocationsController" style="rounded=0;whiteSpace=wrap;html=1;" vertex="1" parent="1">
                    <mxGeometry x="1080" y="1180" width="220" height="40" as="geometry"/>
                </mxCell>
                <mxCell id="72" style="edgeStyle=orthogonalEdgeStyle;html=1;endArrow=open;endFill=0;endSize=12;labelPosition=center;verticalLabelPosition=middle;align=center;verticalAlign=middle;rounded=0;" edge="1" parent="1" source="64" target="65">
                    <mxGeometry relative="1" as="geometry">
                        <mxPoint x="1090.0100000000002" y="870" as="targetPoint"/>
                        <mxPoint x="970" y="870" as="sourcePoint"/>
                    </mxGeometry>
                </mxCell>
                <mxCell id="73" value="Injected into" style="edgeLabel;html=1;align=center;verticalAlign=middle;resizable=0;points=[];" vertex="1" connectable="0" parent="72">
                    <mxGeometry x="0.3901" y="3" relative="1" as="geometry">
                        <mxPoint x="-23" y="3" as="offset"/>
                    </mxGeometry>
                </mxCell>
                <mxCell id="74" style="edgeStyle=none;html=1;dashed=1;endArrow=block;endFill=0;endSize=12;" edge="1" parent="1" target="75" source="61">
                    <mxGeometry relative="1" as="geometry">
                        <mxPoint x="850" y="720" as="sourcePoint"/>
                        <mxPoint x="510" y="720" as="targetPoint"/>
                    </mxGeometry>
                </mxCell>
                <mxCell id="84" value="Implements" style="edgeLabel;html=1;align=center;verticalAlign=middle;resizable=0;points=[];" vertex="1" connectable="0" parent="74">
                    <mxGeometry x="-0.2867" relative="1" as="geometry">
                        <mxPoint y="-4" as="offset"/>
                    </mxGeometry>
                </mxCell>
                <mxCell id="75" value="&amp;lt;&amp;lt;interface&amp;gt;&amp;gt;&lt;br&gt;ILocationService" style="rounded=0;whiteSpace=wrap;html=1;" vertex="1" parent="1">
                    <mxGeometry x="740" y="760" width="220" height="40" as="geometry"/>
                </mxCell>
                <mxCell id="76" style="edgeStyle=none;html=1;dashed=1;endArrow=block;endFill=0;endSize=12;" edge="1" parent="1" target="77" source="51">
                    <mxGeometry relative="1" as="geometry">
                        <mxPoint x="1190" y="520" as="sourcePoint"/>
                        <mxPoint x="850" y="400" as="targetPoint"/>
                    </mxGeometry>
                </mxCell>
                <mxCell id="89" value="Implements" style="edgeLabel;html=1;align=center;verticalAlign=middle;resizable=0;points=[];" vertex="1" connectable="0" parent="76">
                    <mxGeometry x="-0.4467" y="-3" relative="1" as="geometry">
                        <mxPoint x="-3" y="-9" as="offset"/>
                    </mxGeometry>
                </mxCell>
                <mxCell id="77" value="&amp;lt;&amp;lt;interface&amp;gt;&amp;gt;&lt;br&gt;ILocationService" style="rounded=0;whiteSpace=wrap;html=1;" vertex="1" parent="1">
                    <mxGeometry x="1080" y="440" width="220" height="40" as="geometry"/>
                </mxCell>
                <mxCell id="78" style="edgeStyle=none;html=1;dashed=1;endArrow=block;endFill=0;endSize=12;" edge="1" parent="1" target="79" source="64">
                    <mxGeometry relative="1" as="geometry">
                        <mxPoint x="840" y="1160" as="sourcePoint"/>
                        <mxPoint x="500" y="1040" as="targetPoint"/>
                    </mxGeometry>
                </mxCell>
                <mxCell id="87" value="Implements" style="edgeLabel;html=1;align=center;verticalAlign=middle;resizable=0;points=[];" vertex="1" connectable="0" parent="78">
                    <mxGeometry x="-0.3667" y="-1" relative="1" as="geometry">
                        <mxPoint x="-1" y="-6" as="offset"/>
                    </mxGeometry>
                </mxCell>
                <mxCell id="79" value="&amp;lt;&amp;lt;interface&amp;gt;&amp;gt;&lt;br&gt;ILocationService" style="rounded=0;whiteSpace=wrap;html=1;" vertex="1" parent="1">
                    <mxGeometry x="740" y="1080" width="220" height="40" as="geometry"/>
                </mxCell>
                <mxCell id="80" style="edgeStyle=none;html=1;dashed=1;endArrow=block;endFill=0;endSize=12;" edge="1" parent="1" target="81" source="52">
                    <mxGeometry relative="1" as="geometry">
                        <mxPoint x="850" y="400" as="sourcePoint"/>
                        <mxPoint x="860" y="450" as="targetPoint"/>
                    </mxGeometry>
                </mxCell>
                <mxCell id="88" value="Implements" style="edgeLabel;html=1;align=center;verticalAlign=middle;resizable=0;points=[];" vertex="1" connectable="0" parent="80">
                    <mxGeometry x="-0.3933" y="1" relative="1" as="geometry">
                        <mxPoint x="1" y="-7" as="offset"/>
                    </mxGeometry>
                </mxCell>
                <mxCell id="81" value="&amp;lt;&amp;lt;interface&amp;gt;&amp;gt;&lt;br&gt;IDatabase" style="rounded=0;whiteSpace=wrap;html=1;" vertex="1" parent="1">
                    <mxGeometry x="740" y="440" width="220" height="40" as="geometry"/>
                </mxCell>
                <mxCell id="85" style="rounded=0;html=1;endArrow=open;endFill=0;endSize=12;elbow=vertical;dashed=1;entryX=1;entryY=1;entryDx=0;entryDy=0;exitX=0;exitY=0;exitDx=0;exitDy=0;" edge="1" parent="1" source="65" target="79">
                    <mxGeometry relative="1" as="geometry">
                        <mxPoint x="1090" y="790" as="sourcePoint"/>
                        <mxPoint x="970" y="790" as="targetPoint"/>
                    </mxGeometry>
                </mxCell>
                <mxCell id="86" value="Depends on" style="edgeLabel;html=1;align=center;verticalAlign=middle;resizable=0;points=[];" vertex="1" connectable="0" parent="85">
                    <mxGeometry x="0.2567" y="2" relative="1" as="geometry">
                        <mxPoint x="15" y="-2" as="offset"/>
                    </mxGeometry>
                </mxCell>
                <mxCell id="90" style="rounded=0;html=1;endArrow=open;endFill=0;endSize=12;dashed=1;exitX=0;exitY=0;exitDx=0;exitDy=0;entryX=1;entryY=1;entryDx=0;entryDy=0;" edge="1" parent="1" source="50" target="77">
                    <mxGeometry relative="1" as="geometry">
                        <mxPoint x="1090" y="790" as="sourcePoint"/>
                        <mxPoint x="970" y="790" as="targetPoint"/>
                    </mxGeometry>
                </mxCell>
                <mxCell id="91" value="Depends on" style="edgeLabel;html=1;align=center;verticalAlign=middle;resizable=0;points=[];" vertex="1" connectable="0" parent="90">
                    <mxGeometry x="0.2567" y="2" relative="1" as="geometry">
                        <mxPoint x="21" y="7" as="offset"/>
                    </mxGeometry>
                </mxCell>
                <mxCell id="92" style="rounded=0;html=1;endArrow=open;endFill=0;endSize=12;elbow=vertical;dashed=1;entryX=1;entryY=1;entryDx=0;entryDy=0;exitX=0;exitY=0;exitDx=0;exitDy=0;" edge="1" parent="1" source="51" target="81">
                    <mxGeometry relative="1" as="geometry">
                        <mxPoint x="1090" y="790" as="sourcePoint"/>
                        <mxPoint x="970" y="790" as="targetPoint"/>
                    </mxGeometry>
                </mxCell>
                <mxCell id="93" value="Depends on" style="edgeLabel;html=1;align=center;verticalAlign=middle;resizable=0;points=[];" vertex="1" connectable="0" parent="92">
                    <mxGeometry x="0.2567" y="2" relative="1" as="geometry">
                        <mxPoint x="16" y="5" as="offset"/>
                    </mxGeometry>
                </mxCell>
            </root>
        </mxGraphModel>
    </diagram>
</mxfile>